<svg xmlns="http://www.w3.org/2000/svg" viewBox="-40 -40 4730 780" width="4730" height="780" role="img" aria-label="Tuebor">
  <rect x="-40" y="-40" width="4730" height="780" fill="#0055A4"/>
  <g transform="scale(1 -1) translate(0 -700)">
    <path d="M708.0700073242188 719.9799957275391H20.0V485.1999969482422H220.22000122070312V0.0099945068359375H507.8300018310547V485.1999969482422H708.0599975585938Z" transform="translate(0 0)" fill="#FFFFFF"/>
    <path d="M381.6300048828125 -19.470001220703125C578.6000061035156 -19.470001220703125 738.260009765625 94.00999450683594 738.260009765625 345.75999450683594V720.0H427.4800109863281V300.25C427.4800109863281 274.9199981689453 406.95001220703125 254.66000366210938 381.6300048828125 254.66000366210938C356.30999755859375 254.66000366210938 335.7799987792969 274.9199981689453 335.7799987792969 300.25V720.0H25.009994506835938V345.75999450683594C25.009994506835938 94.00999450683594 184.6599884033203 -19.470001220703125 381.6399841308594 -19.470001220703125Z" transform="translate(728 0)" fill="#FFFFFF"/>
    <path d="M680.5500030517578 720H35.0V485.2200012207031H35.25V234.8000030517578H35.0V0.0200042724609375H680.5299987792969V234.8000030517578H322.86000061035156V284.63999938964844H534.7700042724609V435.3300018310547H322.86000061035156V485.2200012207031H680.5500030517578Z" transform="translate(1491 0)" fill="#FFFFFF"/>
    <path d="M661.4700012207031 368.47999572753906C700.0800018310547 405.7099914550781 724.3899993896484 457.3399963378906 724.3899993896484 514.3799896240234C724.3899993896484 627.9199829101562 628.0599975585938 719.9699859619141 514.5299987792969 719.9699859619141L35.02000427246094 719.9599914550781V-0.0200042724609375H541.5299987792969C653.7899932861328 -0.0200042724609375 749.0499877929688 90.97999572753906 749.0499877929688 203.25999450683594C749.0499877929688 271.30999755859375 714.0499877929688 331.55999755859375 661.4699859619141 368.4499969482422ZM322.62998962402344 424.72999572753906V511.84999084472656H398.5599822998047C422.6099853515625 511.84999084472656 442.1099853515625 492.34999084472656 442.1099853515625 468.29998779296875C442.1099853515625 444.239990234375 422.6099853515625 424.739990234375 398.5599822998047 424.739990234375ZM322.62998962402344 203.95999145507812V291.0799865722656H398.5599822998047C422.6099853515625 291.0799865722656 442.1099853515625 271.5799865722656 442.1099853515625 247.51998901367188C442.1099853515625 223.46998596191406 422.6099853515625 203.96998596191406 398.5599822998047 203.96998596191406Z" transform="translate(2197 0)" fill="#FFFFFF"/>
    <path d="M390 -19C599 -19 769 151 769 360C769 570 599 740 390 740C180 740 10 570 10 360C10 151 180 -19 390 -19ZM390 271C340 271 300 311 300 360C300 410 340 450 390 450C439 450 479 410 479 360C479 311 439 271 390 271Z" transform="translate(2951 0)" fill="#FFFFFF"/>
    <path d="M734.75 0 631.25 192.72999572753906C688.4799957275391 248.489990234375 723.8499908447266 326.71998596191406 723.8499908447266 413.33998107910156C723.8499908447266 582.6899871826172 588.6199951171875 719.9399871826172 419.29998779296875 719.9399871826172H322.6099853515625V719.9499816894531H34.99998474121094V-0.0300140380859375H322.6099853515625V106.67999267578125H387.5799865722656L440.54998779296875 -0.0300140380859375ZM368.3899841308594 485.24998474121094C408.1099853515625 485.24998474121094 438.2699890136719 453.0599822998047 438.2699890136719 413.3299865722656C438.2699890136719 373.6099853515625 408.1099853515625 341.4099884033203 368.3899841308594 341.4099884033203H322.6099853515625V485.25999450683594Z" transform="translate(3730 0)" fill="#FFFFFF"/>
    <rect x="4510" y="0" width="140" height="140" fill="#C4A15E"/>
  </g>
</svg>
